<svg width="40" height="37" viewBox="0 0 40 37" fill="none" xmlns="http://www.w3.org/2000/svg">
<path d="M34 7.5C30.7 7.5 28 6.6 28 5.5V7.5C28 8.6 30.7 9.5 34 9.5C37.3 9.5 40 8.6 40 7.5V5.5C40 6.6 37.3 7.5 34 7.5Z" fill="#F9FAFC"/>
<path d="M34 4.5C30.7 4.5 28 3.6 28 2.5V4.5C28 5.6 30.7 6.5 34 6.5C37.3 6.5 40 5.6 40 4.5V2.5C40 3.6 37.3 4.5 34 4.5ZM34 10.5C30.7 10.5 28 9.6 28 8.5V10.5C28 11.6 30.7 12.5 34 12.5C37.3 12.5 40 11.6 40 10.5V8.5C40 9.6 37.3 10.5 34 10.5Z" fill="#F9FAFC"/>
<path d="M34 13.5C30.7 13.5 28 12.6 28 11.5V13.5C28 14.6 30.7 15.5 34 15.5C37.3 15.5 40 14.6 40 13.5V11.5C40 12.6 37.3 13.5 34 13.5Z" fill="#F9FAFC"/>
<path d="M34 16.5C30.7 16.5 28 15.6 28 14.5V16.5C28 17.6 30.7 18.5 34 18.5C37.3 18.5 40 17.6 40 16.5V14.5C40 15.6 37.3 16.5 34 16.5Z" fill="#F9FAFC"/>
<path d="M34 19.5C30.7 19.5 28 18.6 28 17.5V19.5C28 20.6 30.7 21.5 34 21.5C37.3 21.5 40 20.6 40 19.5V17.5C40 18.6 37.3 19.5 34 19.5Z" fill="#F9FAFC"/>
<path d="M34 22.5C30.7 22.5 28 21.6 28 20.5V22.5C28 23.6 30.7 24.5 34 24.5C37.3 24.5 40 23.6 40 22.5V20.5C40 21.6 37.3 22.5 34 22.5Z" fill="#F9FAFC"/>
<path d="M34 25.5C30.7 25.5 28 24.6 28 23.5V25.5C28 26.6 30.7 27.5 34 27.5C37.3 27.5 40 26.6 40 25.5V23.5C40 24.6 37.3 25.5 34 25.5Z" fill="#F9FAFC"/>
<path d="M34 28.5C30.7 28.5 28 27.6 28 26.5V28.5C28 29.6 30.7 30.5 34 30.5C37.3 30.5 40 29.6 40 28.5V26.5C40 27.6 37.3 28.5 34 28.5Z" fill="#F9FAFC"/>
<path d="M34 31.5C30.7 31.5 28 30.6 28 29.5V31.5C28 32.6 30.7 33.5 34 33.5C37.3 33.5 40 32.6 40 31.5V29.5C40 30.6 37.3 31.5 34 31.5Z" fill="#F9FAFC"/>
<path d="M34 34.5C30.7 34.5 28 33.6 28 32.5V34.5C28 35.6 30.7 36.5 34 36.5C37.3 36.5 40 35.6 40 34.5V32.5C40 33.6 37.3 34.5 34 34.5Z" fill="#F9FAFC"/>
<path d="M34 4.5C37.3137 4.5 40 3.60457 40 2.5C40 1.39543 37.3137 0.5 34 0.5C30.6863 0.5 28 1.39543 28 2.5C28 3.60457 30.6863 4.5 34 4.5Z" fill="#E6E9F1"/>
<path d="M34 6.5C31.2 6.5 28.9 5.9 28.2 5C28.1 5.2 28 5.3 28 5.5C28 6.6 30.7 7.5 34 7.5C37.3 7.5 40 6.6 40 5.5C40 5.3 39.9 5.2 39.8 5C39.1 5.9 36.8 6.5 34 6.5ZM34 9.5C31.2 9.5 28.9 8.9 28.2 8C28.1 8.2 28 8.3 28 8.5C28 9.6 30.7 10.5 34 10.5C37.3 10.5 40 9.6 40 8.5C40 8.3 39.9 8.2 39.8 8C39.1 8.9 36.8 9.5 34 9.5ZM34 12.5C31.2 12.5 28.9 11.9 28.2 11C28.1 11.2 28 11.3 28 11.5C28 12.6 30.7 13.5 34 13.5C37.3 13.5 40 12.6 40 11.5C40 11.3 39.9 11.2 39.8 11C39.1 11.9 36.8 12.5 34 12.5ZM34 15.5C31.2 15.5 28.9 14.9 28.2 14C28.1 14.2 28 14.3 28 14.5C28 15.6 30.7 16.5 34 16.5C37.3 16.5 40 15.6 40 14.5C40 14.3 39.9 14.2 39.8 14C39.1 14.9 36.8 15.5 34 15.5ZM34 18.5C31.2 18.5 28.9 17.9 28.2 17C28.1 17.2 28 17.3 28 17.5C28 18.6 30.7 19.5 34 19.5C37.3 19.5 40 18.6 40 17.5C40 17.3 39.9 17.2 39.8 17C39.1 17.9 36.8 18.5 34 18.5ZM34 21.5C31.2 21.5 28.9 20.9 28.2 20C28.1 20.2 28 20.3 28 20.5C28 21.6 30.7 22.5 34 22.5C37.3 22.5 40 21.6 40 20.5C40 20.3 39.9 20.2 39.8 20C39.1 20.9 36.8 21.5 34 21.5ZM34 24.5C31.2 24.5 28.9 23.9 28.2 23C28.1 23.2 28 23.3 28 23.5C28 24.6 30.7 25.5 34 25.5C37.3 25.5 40 24.6 40 23.5C40 23.3 39.9 23.2 39.8 23C39.1 23.9 36.8 24.5 34 24.5ZM34 27.5C31.2 27.5 28.9 26.9 28.2 26C28.1 26.2 28 26.3 28 26.5C28 27.6 30.7 28.5 34 28.5C37.3 28.5 40 27.6 40 26.5C40 26.3 39.9 26.2 39.8 26C39.1 26.9 36.8 27.5 34 27.5ZM34 30.5C31.2 30.5 28.9 29.9 28.2 29C28.1 29.2 28 29.3 28 29.5C28 30.6 30.7 31.5 34 31.5C37.3 31.5 40 30.6 40 29.5C40 29.3 39.9 29.2 39.8 29C39.1 29.9 36.8 30.5 34 30.5ZM34 33.5C31.2 33.5 28.9 32.9 28.2 32C28.1 32.2 28 32.3 28 32.5C28 33.6 30.7 34.5 34 34.5C37.3 34.5 40 33.6 40 32.5C40 32.3 39.9 32.2 39.8 32C39.1 32.9 36.8 33.5 34 33.5Z" fill="#E6E9F1"/>
<path d="M6 13.5C2.7 13.5 0 12.6 0 11.5V13.5C0 14.6 2.7 15.5 6 15.5C9.3 15.5 12 14.6 12 13.5V11.5C12 12.6 9.3 13.5 6 13.5Z" fill="#F9FAFC"/>
<path d="M6 10.5C2.7 10.5 0 9.6 0 8.5V10.5C0 11.6 2.7 12.5 6 12.5C9.3 12.5 12 11.6 12 10.5V8.5C12 9.6 9.3 10.5 6 10.5ZM6 16.5C2.7 16.5 0 15.6 0 14.5V16.5C0 17.6 2.7 18.5 6 18.5C9.3 18.5 12 17.6 12 16.5V14.5C12 15.6 9.3 16.5 6 16.5Z" fill="#F9FAFC"/>
<path d="M6 19.5C2.7 19.5 0 18.6 0 17.5V19.5C0 20.6 2.7 21.5 6 21.5C9.3 21.5 12 20.6 12 19.5V17.5C12 18.6 9.3 19.5 6 19.5Z" fill="#F9FAFC"/>
<path d="M6 22.5C2.7 22.5 0 21.6 0 20.5V22.5C0 23.6 2.7 24.5 6 24.5C9.3 24.5 12 23.6 12 22.5V20.5C12 21.6 9.3 22.5 6 22.5Z" fill="#F9FAFC"/>
<path d="M6 25.5C2.7 25.5 0 24.6 0 23.5V25.5C0 26.6 2.7 27.5 6 27.5C9.3 27.5 12 26.6 12 25.5V23.5C12 24.6 9.3 25.5 6 25.5Z" fill="#F9FAFC"/>
<path d="M6 28.5C2.7 28.5 0 27.6 0 26.5V28.5C0 29.6 2.7 30.5 6 30.5C9.3 30.5 12 29.6 12 28.5V26.5C12 27.6 9.3 28.5 6 28.5Z" fill="#F9FAFC"/>
<path d="M6 31.5C2.7 31.5 0 30.6 0 29.5V31.5C0 32.6 2.7 33.5 6 33.5C9.3 33.5 12 32.6 12 31.5V29.5C12 30.6 9.3 31.5 6 31.5Z" fill="#F9FAFC"/>
<path d="M6 34.5C2.7 34.5 0 33.6 0 32.5V34.5C0 35.6 2.7 36.5 6 36.5C9.3 36.5 12 35.6 12 34.5V32.5C12 33.6 9.3 34.5 6 34.5Z" fill="#F9FAFC"/>
<path d="M6 10.5C9.31371 10.5 12 9.60457 12 8.5C12 7.39543 9.31371 6.5 6 6.5C2.68629 6.5 0 7.39543 0 8.5C0 9.60457 2.68629 10.5 6 10.5Z" fill="#E6E9F1"/>
<path d="M6 12.5C3.2 12.5 0.9 11.9 0.2 11C0.0999998 11.2 0 11.3 0 11.5C0 12.6 2.7 13.5 6 13.5C9.3 13.5 12 12.6 12 11.5C12 11.3 11.9 11.2 11.8 11C11.1 11.9 8.8 12.5 6 12.5ZM6 15.5C3.2 15.5 0.9 14.9 0.2 14C0.0999998 14.2 0 14.3 0 14.5C0 15.6 2.7 16.5 6 16.5C9.3 16.5 12 15.6 12 14.5C12 14.3 11.9 14.2 11.8 14C11.1 14.9 8.8 15.5 6 15.5ZM6 18.5C3.2 18.5 0.9 17.9 0.2 17C0.0999998 17.2 0 17.3 0 17.5C0 18.6 2.7 19.5 6 19.5C9.3 19.5 12 18.6 12 17.5C12 17.3 11.9 17.2 11.8 17C11.1 17.9 8.8 18.5 6 18.5ZM6 21.5C3.2 21.5 0.9 20.9 0.2 20C0.0999998 20.2 0 20.3 0 20.5C0 21.6 2.7 22.5 6 22.5C9.3 22.5 12 21.6 12 20.5C12 20.3 11.9 20.2 11.8 20C11.1 20.9 8.8 21.5 6 21.5ZM6 24.5C3.2 24.5 0.9 23.9 0.2 23C0.0999998 23.2 0 23.3 0 23.5C0 24.6 2.7 25.5 6 25.5C9.3 25.5 12 24.6 12 23.5C12 23.3 11.9 23.2 11.8 23C11.1 23.9 8.8 24.5 6 24.5ZM6 27.5C3.2 27.5 0.9 26.9 0.2 26C0.0999998 26.2 0 26.3 0 26.5C0 27.6 2.7 28.5 6 28.5C9.3 28.5 12 27.6 12 26.5C12 26.3 11.9 26.2 11.8 26C11.1 26.9 8.8 27.5 6 27.5ZM6 30.5C3.2 30.5 0.9 29.9 0.2 29C0.0999998 29.2 0 29.3 0 29.5C0 30.6 2.7 31.5 6 31.5C9.3 31.5 12 30.6 12 29.5C12 29.3 11.9 29.2 11.8 29C11.1 29.9 8.8 30.5 6 30.5ZM6 33.5C3.2 33.5 0.9 32.9 0.2 32C0.0999998 32.2 0 32.3 0 32.5C0 33.6 2.7 34.5 6 34.5C9.3 34.5 12 33.6 12 32.5C12 32.3 11.9 32.2 11.8 32C11.1 32.9 8.8 33.5 6 33.5Z" fill="#E6E9F1"/>
<path d="M20 22.5C16.7 22.5 14 21.6 14 20.5V22.5C14 23.6 16.7 24.5 20 24.5C23.3 24.5 26 23.6 26 22.5V20.5C26 21.6 23.3 22.5 20 22.5Z" fill="#F9FAFC"/>
<path d="M20 19.5C16.7 19.5 14 18.6 14 17.5V19.5C14 20.6 16.7 21.5 20 21.5C23.3 21.5 26 20.6 26 19.5V17.5C26 18.6 23.3 19.5 20 19.5ZM20 25.5C16.7 25.5 14 24.6 14 23.5V25.5C14 26.6 16.7 27.5 20 27.5C23.3 27.5 26 26.6 26 25.5V23.5C26 24.6 23.3 25.5 20 25.5Z" fill="#F9FAFC"/>
<path d="M20 28.5C16.7 28.5 14 27.6 14 26.5V28.5C14 29.6 16.7 30.5 20 30.5C23.3 30.5 26 29.6 26 28.5V26.5C26 27.6 23.3 28.5 20 28.5Z" fill="#F9FAFC"/>
<path d="M20 31.5C16.7 31.5 14 30.6 14 29.5V31.5C14 32.6 16.7 33.5 20 33.5C23.3 33.5 26 32.6 26 31.5V29.5C26 30.6 23.3 31.5 20 31.5Z" fill="#F9FAFC"/>
<path d="M20 34.5C16.7 34.5 14 33.6 14 32.5V34.5C14 35.6 16.7 36.5 20 36.5C23.3 36.5 26 35.6 26 34.5V32.5C26 33.6 23.3 34.5 20 34.5Z" fill="#F9FAFC"/>
<path d="M20 19.5C23.3137 19.5 26 18.6046 26 17.5C26 16.3954 23.3137 15.5 20 15.5C16.6863 15.5 14 16.3954 14 17.5C14 18.6046 16.6863 19.5 20 19.5Z" fill="#E6E9F1"/>
<path d="M20 21.5C17.2 21.5 14.9 20.9 14.2 20C14.1 20.2 14 20.3 14 20.5C14 21.6 16.7 22.5 20 22.5C23.3 22.5 26 21.6 26 20.5C26 20.3 25.9 20.2 25.8 20C25.1 20.9 22.8 21.5 20 21.5ZM20 24.5C17.2 24.5 14.9 23.9 14.2 23C14.1 23.2 14 23.3 14 23.5C14 24.6 16.7 25.5 20 25.5C23.3 25.5 26 24.6 26 23.5C26 23.3 25.9 23.2 25.8 23C25.1 23.9 22.8 24.5 20 24.5ZM20 27.5C17.2 27.5 14.9 26.9 14.2 26C14.1 26.2 14 26.3 14 26.5C14 27.6 16.7 28.5 20 28.5C23.3 28.5 26 27.6 26 26.5C26 26.3 25.9 26.2 25.8 26C25.1 26.9 22.8 27.5 20 27.5ZM20 30.5C17.2 30.5 14.9 29.9 14.2 29C14.1 29.2 14 29.3 14 29.5C14 30.6 16.7 31.5 20 31.5C23.3 31.5 26 30.6 26 29.5C26 29.3 25.9 29.2 25.8 29C25.1 29.9 22.8 30.5 20 30.5ZM20 33.5C17.2 33.5 14.9 32.9 14.2 32C14.1 32.2 14 32.3 14 32.5C14 33.6 16.7 34.5 20 34.5C23.3 34.5 26 33.6 26 32.5C26 32.3 25.9 32.2 25.8 32C25.1 32.9 22.8 33.5 20 33.5Z" fill="#E6E9F1"/>
</svg>
