<svg width="12" height="29" viewBox="0 0 12 29" fill="none" xmlns="http://www.w3.org/2000/svg">
<path d="M6 4.5C9.31371 4.5 12 3.60457 12 2.5C12 1.39543 9.31371 0.5 6 0.5C2.68629 0.5 0 1.39543 0 2.5C0 3.60457 2.68629 4.5 6 4.5Z" fill="#E6E9F1"/>
<path d="M6 6.5C3.2 6.5 0.9 5.9 0.2 5C0.0999998 5.2 0 5.3 0 5.5C0 6.6 2.7 7.5 6 7.5C9.3 7.5 12 6.6 12 5.5C12 5.3 11.9 5.2 11.8 5C11.1 5.9 8.8 6.5 6 6.5ZM6 9.5C3.2 9.5 0.9 8.9 0.2 8C0.0999998 8.2 0 8.3 0 8.5C0 9.6 2.7 10.5 6 10.5C9.3 10.5 12 9.6 12 8.5C12 8.3 11.9 8.2 11.8 8C11.1 8.9 8.8 9.5 6 9.5ZM6 12.5C3.2 12.5 0.9 11.9 0.2 11C0.0999998 11.2 0 11.3 0 11.5C0 12.6 2.7 13.5 6 13.5C9.3 13.5 12 12.6 12 11.5C12 11.3 11.9 11.2 11.8 11C11.1 11.9 8.8 12.5 6 12.5ZM6 15.5C3.2 15.5 0.9 14.9 0.2 14C0.0999998 14.2 0 14.3 0 14.5C0 15.6 2.7 16.5 6 16.5C9.3 16.5 12 15.6 12 14.5C12 14.3 11.9 14.2 11.8 14C11.1 14.9 8.8 15.5 6 15.5ZM6 18.5C3.2 18.5 0.9 17.9 0.2 17C0.0999998 17.2 0 17.3 0 17.5C0 18.6 2.7 19.5 6 19.5C9.3 19.5 12 18.6 12 17.5C12 17.3 11.9 17.2 11.8 17C11.1 17.9 8.8 18.5 6 18.5ZM6 21.5C3.2 21.5 0.9 20.9 0.2 20C0.0999998 20.2 0 20.3 0 20.5C0 21.6 2.7 22.5 6 22.5C9.3 22.5 12 21.6 12 20.5C12 20.3 11.9 20.2 11.8 20C11.1 20.9 8.8 21.5 6 21.5ZM6 24.5C3.2 24.5 0.9 23.9 0.2 23C0.0999998 23.2 0 23.3 0 23.5C0 24.6 2.7 25.5 6 25.5C9.3 25.5 12 24.6 12 23.5C12 23.3 11.9 23.2 11.8 23C11.1 23.9 8.8 24.5 6 24.5ZM6 27.5C3.2 27.5 0.9 26.9 0.2 26C0.0999998 26.2 0 26.3 0 26.5C0 27.6 2.7 28.5 6 28.5C9.3 28.5 12 27.6 12 26.5C12 26.3 11.9 26.2 11.8 26C11.1 26.9 8.8 27.5 6 27.5Z" fill="#E6E9F1"/>
</svg>
