<svg width="16" height="16" viewBox="0 0 16 16" fill="none" xmlns="http://www.w3.org/2000/svg">
<path d="M8.58337 8.75H7.08337V4.25H8.58337M8.58337 11.75H7.08337V10.25H8.58337M7.83337 0.5C6.84846 0.5 5.87319 0.693993 4.96325 1.0709C4.05331 1.44781 3.22651 2.00026 2.53007 2.6967C1.12355 4.10322 0.333374 6.01088 0.333374 8C0.333374 9.98912 1.12355 11.8968 2.53007 13.3033C3.22651 13.9997 4.05331 14.5522 4.96325 14.9291C5.87319 15.306 6.84846 15.5 7.83337 15.5C9.8225 15.5 11.7302 14.7098 13.1367 13.3033C14.5432 11.8968 15.3334 9.98912 15.3334 8C15.3334 7.01509 15.1394 6.03982 14.7625 5.12987C14.3856 4.21993 13.8331 3.39314 13.1367 2.6967C12.4402 2.00026 11.6134 1.44781 10.7035 1.0709C9.79356 0.693993 8.81829 0.5 7.83337 0.5Z" fill="#F44336"/>
</svg>
