<svg width="38" height="39" viewBox="0 0 38 39" fill="none" xmlns="http://www.w3.org/2000/svg">
<path d="M0 0.5V6.8989C3.57565 7.34731 6.52306 8.90446 9.335 10.687L7.35448 12.2987L15.4992 16.4683L13.2635 7.48886L11.1905 9.17582C9.5721 5.96175 7.76739 2.93164 5.369 0.5H0ZM22.1959 0.5C20.9456 2.81074 19.8587 5.16936 18.8526 7.58172L16.4368 7.06711L18.5125 16.0843L23.8787 8.65367L21.5107 8.14918C24.1746 5.3579 26.9199 2.70326 30.158 0.5H22.1959ZM38 8.03865C34.9602 8.23803 32.2353 9.61933 29.5954 11.3247L28.5975 8.7115L22.1909 15.3664L31.3208 15.8434L30.2605 13.0668C32.8404 12.9918 35.4201 13.2136 38 14.7839V8.03865ZM22.4735 18.3235C22.051 18.3331 21.6565 18.5176 21.1182 19.0943L20.593 19.654L20.0478 19.1142C19.4567 18.5294 18.9902 18.3679 18.5174 18.3888C18.0446 18.4097 17.4887 18.6593 16.867 19.1645L16.3694 19.5686L15.8968 19.1369C15.1846 18.49 14.5776 18.2984 13.9963 18.3285C13.5731 18.3505 13.1341 18.5105 12.696 18.7904L15.9743 24.7099C17.2109 25.4692 19.7379 25.7548 21.4757 24.8756L24.644 18.9838C24.0431 18.7378 23.5029 18.4855 23.0361 18.3888C22.8671 18.3537 22.7102 18.3281 22.5584 18.3235C22.5301 18.3228 22.5018 18.3228 22.4735 18.3235ZM15.2741 26.0506C13.8309 27.0742 12.6721 28.8396 12.2233 31.4252C11.7884 33.9312 12.4736 35.6237 13.6862 36.7772C14.8989 37.9308 16.7192 38.5234 18.5675 38.4993C20.416 38.4752 22.2593 37.8317 23.4988 36.6568C24.7383 35.4818 25.4393 33.811 25.0417 31.4201C24.6307 28.9494 23.5694 27.231 22.2258 26.191C19.9466 27.4005 17.0969 27.1434 15.2741 26.0505V26.0506Z" fill="#F9FAFC"/>
</svg>
