<svg width="17" height="18" viewBox="0 0 17 18" fill="none" xmlns="http://www.w3.org/2000/svg">
<path fill-rule="evenodd" clip-rule="evenodd" d="M0 6.568V11.432C0 13.726 1.19209e-07 14.872 0.722 15.585C1.377 16.232 2.396 16.291 4.318 16.297C4.217 15.622 4.196 14.817 4.19 13.869C4.19 13.7725 4.20902 13.677 4.24597 13.5879C4.28292 13.4988 4.33707 13.4178 4.40534 13.3496C4.4736 13.2815 4.55464 13.2274 4.6438 13.1906C4.73297 13.1538 4.82853 13.1349 4.925 13.135C5.02152 13.1338 5.11734 13.1516 5.20697 13.1875C5.2966 13.2233 5.37829 13.2765 5.44738 13.3439C5.51646 13.4113 5.5716 13.4917 5.60962 13.5804C5.64765 13.6691 5.66783 13.7645 5.669 13.861C5.675 14.925 5.702 15.679 5.809 16.251C5.912 16.803 6.076 17.121 6.316 17.359C6.589 17.629 6.972 17.804 7.696 17.899C8.44 17.999 9.426 18 10.841 18H11.826C13.241 18 14.227 17.998 14.972 17.9C15.695 17.804 16.078 17.628 16.35 17.359C16.623 17.089 16.801 16.711 16.898 15.997C16.998 15.263 17 14.288 17 12.892V5.108C17 3.711 16.998 2.738 16.898 2.002C16.801 1.289 16.623 0.91 16.351 0.642C16.078 0.372 15.695 0.196 14.971 0.0999999C14.227 0.00199991 13.241 0 11.826 0H10.841C9.426 0 8.44 0.00199991 7.695 0.0999999C6.972 0.196 6.589 0.372 6.316 0.641C6.076 0.878 5.912 1.197 5.809 1.749C5.702 2.321 5.675 3.075 5.669 4.139C5.66783 4.23552 5.64765 4.33087 5.60962 4.4196C5.5716 4.50832 5.51646 4.58869 5.44738 4.6561C5.37829 4.72352 5.2966 4.77667 5.20697 4.81251C5.11734 4.84835 5.02152 4.86619 4.925 4.865C4.82853 4.86513 4.73297 4.84624 4.6438 4.80941C4.55464 4.77259 4.4736 4.71854 4.40534 4.65037C4.33707 4.5822 4.28292 4.50124 4.24597 4.41212C4.20902 4.323 4.19 4.22747 4.19 4.131C4.196 3.183 4.217 2.378 4.318 1.703C2.396 1.709 1.378 1.768 0.722 2.415C1.19209e-07 3.128 0 4.275 0 6.568ZM2.434 9.516C2.36543 9.4487 2.31095 9.3684 2.27377 9.2798C2.23658 9.19121 2.21743 9.09608 2.21743 9C2.21743 8.90392 2.23658 8.80879 2.27377 8.7202C2.31095 8.6316 2.36543 8.5513 2.434 8.484L4.404 6.538C4.54352 6.40083 4.73134 6.32397 4.927 6.32397C5.12266 6.32397 5.31048 6.40083 5.45 6.538C5.51857 6.6053 5.57305 6.6856 5.61023 6.7742C5.64742 6.86279 5.66657 6.95792 5.66657 7.054C5.66657 7.15008 5.64742 7.2452 5.61023 7.3338C5.57305 7.4224 5.51857 7.5027 5.45 7.57L4.74 8.27H11.826C12.234 8.27 12.566 8.597 12.566 9C12.566 9.403 12.234 9.73 11.826 9.73H4.74L5.45 10.43C5.51857 10.4973 5.57305 10.5776 5.61023 10.6662C5.64742 10.7548 5.66657 10.8499 5.66657 10.946C5.66657 11.0421 5.64742 11.1372 5.61023 11.2258C5.57305 11.3144 5.51857 11.3947 5.45 11.462C5.31048 11.5992 5.12266 11.676 4.927 11.676C4.73134 11.676 4.54352 11.5992 4.404 11.462L2.434 9.516Z" fill="#F9FAFC"/>
</svg>
