<svg width="13" height="16" viewBox="0 0 13 16" fill="none" xmlns="http://www.w3.org/2000/svg">
<path d="M6.66675 7.39062C6.87925 7.39062 7.0575 7.31862 7.2015 7.17462C7.3455 7.03062 7.41725 6.85262 7.41675 6.64062V4.39062C7.41675 4.17812 7.34475 3.99988 7.20075 3.85588C7.05675 3.71188 6.87875 3.64013 6.66675 3.64062C6.45425 3.64062 6.276 3.71263 6.132 3.85663C5.988 4.00063 5.91625 4.17863 5.91675 4.39062V6.64062C5.91675 6.85313 5.98875 7.03138 6.13275 7.17537C6.27675 7.31938 6.45475 7.39113 6.66675 7.39062ZM6.66675 10.3906C6.87925 10.3906 7.0575 10.3186 7.2015 10.1746C7.3455 10.0306 7.41725 9.85262 7.41675 9.64062C7.41675 9.42813 7.34475 9.24988 7.20075 9.10588C7.05675 8.96187 6.87875 8.89013 6.66675 8.89062C6.45425 8.89062 6.276 8.96263 6.132 9.10662C5.988 9.25062 5.91625 9.42863 5.91675 9.64062C5.91675 9.85312 5.98875 10.0314 6.13275 10.1754C6.27675 10.3194 6.45475 10.3911 6.66675 10.3906ZM6.66675 15.3594C6.56675 15.3594 6.46675 15.3406 6.36675 15.3031C6.26675 15.2656 6.17925 15.2156 6.10425 15.1531C4.27925 13.5406 2.91675 12.0436 2.01675 10.6621C1.11675 9.28063 0.666748 7.99012 0.666748 6.79062C0.666748 4.91562 1.27 3.42188 2.4765 2.30937C3.683 1.19687 5.07975 0.640625 6.66675 0.640625C8.25425 0.640625 9.65125 1.19687 10.8577 2.30937C12.0642 3.42188 12.6672 4.91562 12.6667 6.79062C12.6667 7.99062 12.2167 9.28137 11.3167 10.6629C10.4167 12.0444 9.05425 13.5411 7.22925 15.1531C7.15425 15.2156 7.06675 15.2656 6.96675 15.3031C6.86675 15.3406 6.76675 15.3594 6.66675 15.3594Z" fill="#F44336"/>
</svg>
