<svg width="18" height="19" viewBox="0 0 18 19" fill="none" xmlns="http://www.w3.org/2000/svg">
<path d="M16.2 0.333496H1.8C0.9 0.333496 0 1.1435 0 2.1335V4.8425C0 5.4905 0.387 6.0485 0.9 6.3635V16.5335C0.9 17.5235 1.89 18.3335 2.7 18.3335H15.3C16.11 18.3335 17.1 17.5235 17.1 16.5335V6.3635C17.613 6.0485 18 5.4905 18 4.8425V2.1335C18 1.1435 17.1 0.333496 16.2 0.333496ZM10.8 11.1335H7.2C6.705 11.1335 6.3 10.7285 6.3 10.2335C6.3 9.7385 6.705 9.3335 7.2 9.3335H10.8C11.295 9.3335 11.7 9.7385 11.7 10.2335C11.7 10.7285 11.295 11.1335 10.8 11.1335ZM16.2 4.8335H1.8V2.1335H16.2V4.8335Z" fill="#F9FAFC"/>
</svg>
