<svg width="18" height="20" viewBox="0 0 18 20" fill="none" xmlns="http://www.w3.org/2000/svg">
<path d="M9 10.3923C7.7625 10.3923 6.70312 9.95458 5.82187 9.07909C4.94062 8.2036 4.5 7.15114 4.5 5.92173V2.00997C4.5 1.54428 4.66425 1.14826 4.99275 0.82191C5.32125 0.495557 5.7195 0.332754 6.1875 0.333499C6.46875 0.333499 6.73612 0.398695 6.98962 0.529087C7.24312 0.659479 7.4445 0.845754 7.59375 1.08791C7.74375 0.845754 7.94512 0.659479 8.19787 0.529087C8.45062 0.398695 8.718 0.333499 9 0.333499C9.28125 0.333499 9.54862 0.398695 9.80212 0.529087C10.0556 0.659479 10.257 0.845754 10.4062 1.08791C10.5562 0.845754 10.7576 0.659479 11.0104 0.529087C11.2631 0.398695 11.5305 0.333499 11.8125 0.333499C12.2812 0.333499 12.6799 0.496675 13.0084 0.823028C13.3369 1.14938 13.5007 1.54503 13.5 2.00997V5.92173C13.5 7.15114 13.0594 8.2036 12.1781 9.07909C11.2969 9.95458 10.2375 10.3923 9 10.3923ZM0 19.3335V16.2041C0 15.5708 0.16425 14.9885 0.49275 14.4572C0.82125 13.9259 1.257 13.521 1.8 13.2423C2.9625 12.6649 4.14375 12.2316 5.34375 11.9425C6.54375 11.6534 7.7625 11.5092 9 11.51C10.2375 11.51 11.4562 11.6545 12.6562 11.9436C13.8562 12.2327 15.0375 12.6656 16.2 13.2423C16.7437 13.5217 17.1799 13.9271 17.5084 14.4583C17.8369 14.9896 18.0007 15.5715 18 16.2041V19.3335H0Z" fill="#F9FAFC"/>
</svg>
