<svg width="38" height="39" viewBox="0 0 38 39" fill="none" xmlns="http://www.w3.org/2000/svg">
<path d="M18.4431 1.05572C18.267 0.878941 18.0576 0.738745 17.8271 0.643204C17.5965 0.547663 17.3494 0.498663 17.0998 0.499025H7.59993C7.35037 0.498663 7.10322 0.547663 6.87268 0.643204C6.64214 0.738745 6.43278 0.878941 6.25664 1.05572L0.556696 6.75566C0.379917 6.9318 0.239722 7.14117 0.144181 7.3717C0.0486398 7.60224 -0.00035995 7.8494 1.99056e-06 8.09895V17.5989C1.99056e-06 18.1042 0.1995 18.5868 0.556696 18.9421L19.5565 37.9419C19.7325 38.119 19.9418 38.2595 20.1724 38.3554C20.4029 38.4513 20.6501 38.5006 20.8998 38.5006C21.1495 38.5006 21.3967 38.4513 21.6272 38.3554C21.8577 38.2595 22.067 38.119 22.2431 37.9419L37.4429 22.7421C37.6195 22.5658 37.7596 22.3564 37.8552 22.1259C37.9508 21.8954 38 21.6483 38 21.3988C38 21.1493 37.9508 20.9022 37.8552 20.6717C37.7596 20.4412 37.6195 20.2318 37.4429 20.0555L18.4431 1.05572ZM12.0706 15.6989C11.6533 15.7093 11.2381 15.6361 10.8495 15.4836C10.4609 15.3312 10.1068 15.1025 9.80791 14.8111C9.50904 14.5196 9.2715 14.1714 9.10927 13.7868C8.94703 13.4021 8.86339 12.989 8.86327 12.5715C8.86314 12.1541 8.94653 11.7409 9.10853 11.3561C9.27053 10.9714 9.50786 10.623 9.80655 10.3314C10.1052 10.0398 10.4593 9.81093 10.8478 9.65822C11.2363 9.50551 11.6514 9.43208 12.0687 9.44223C12.885 9.4621 13.6613 9.80029 14.2317 10.3846C14.8021 10.9689 15.1216 11.753 15.1218 12.5696C15.122 13.3862 14.8031 14.1705 14.233 14.7552C13.6629 15.3398 12.8869 15.6785 12.0706 15.6989Z" fill="#F9FAFC"/>
</svg>
