<svg width="18" height="18" viewBox="0 0 18 18" fill="none" xmlns="http://www.w3.org/2000/svg">
<path d="M0 0V3.03106C1.69373 3.24346 3.08987 3.98106 4.42184 4.82543L3.4837 5.58887L7.34175 7.56395L6.28269 3.31051L5.30077 4.1096C4.53415 2.58715 3.67929 1.15183 2.54321 0H0ZM10.5138 0C9.92161 1.09456 9.40675 2.2118 8.93018 3.3545L7.78584 3.11074L8.76908 7.38206L11.311 3.86226L10.1893 3.6233C11.4511 2.30111 12.7515 1.04365 14.2853 0H10.5138ZM18 3.57094C16.5601 3.66538 15.2694 4.31968 14.0189 5.12749L13.5462 3.88966L10.5115 7.04199L14.8362 7.2679L14.3339 5.95272C15.556 5.91718 16.778 6.02224 18 6.76608V3.57094ZM10.6454 8.44272C10.4452 8.44728 10.2584 8.53465 10.0033 8.80782L9.75457 9.07297L9.49632 8.81726C9.21632 8.54024 8.99538 8.46376 8.7714 8.47365C8.54746 8.48355 8.28413 8.60177 7.98961 8.84108L7.75392 9.03248L7.53006 8.82799C7.19271 8.5216 6.9052 8.43081 6.62982 8.44508C6.42938 8.4555 6.2214 8.5313 6.01387 8.66387L7.56675 11.4678C8.15253 11.8275 9.34952 11.9628 10.1727 11.5463L11.6735 8.75546C11.3888 8.63895 11.133 8.51947 10.9118 8.47365C10.8318 8.45702 10.7575 8.44488 10.6855 8.44272C10.6722 8.44237 10.6588 8.44237 10.6454 8.44272ZM7.23508 12.1029C6.55147 12.5878 6.00258 13.424 5.78997 14.6488C5.58396 15.8358 5.90854 16.6376 6.48294 17.1839C7.05739 17.7304 7.9196 18.0111 8.79513 17.9997C9.67072 17.9882 10.5439 17.6835 11.131 17.1269C11.7181 16.5703 12.0502 15.7789 11.8619 14.6464C11.6672 13.476 11.1644 12.6621 10.528 12.1694C9.44841 12.7423 8.09855 12.6206 7.23508 12.1028V12.1029Z" fill="#F9FAFC"/>
</svg>
