<svg width="22" height="17" viewBox="0 0 22 17" fill="none" xmlns="http://www.w3.org/2000/svg">
<path d="M2 0.333496C1.46957 0.333496 0.960859 0.54421 0.585786 0.919282C0.210714 1.29436 0 1.80306 0 2.3335V13.3335H2C2 14.1291 2.31607 14.8922 2.87868 15.4548C3.44129 16.0174 4.20435 16.3335 5 16.3335C5.79565 16.3335 6.55871 16.0174 7.12132 15.4548C7.68393 14.8922 8 14.1291 8 13.3335H14C14 14.1291 14.3161 14.8922 14.8787 15.4548C15.4413 16.0174 16.2044 16.3335 17 16.3335C17.7956 16.3335 18.5587 16.0174 19.1213 15.4548C19.6839 14.8922 20 14.1291 20 13.3335H22V8.3335L19 4.3335H16V0.333496M9 2.3335L13 6.3335L9 10.3335V7.3335H3V5.3335H9M16 5.8335H18.5L20.47 8.3335H16M5 11.8335C5.39782 11.8335 5.77936 11.9915 6.06066 12.2728C6.34196 12.5541 6.5 12.9357 6.5 13.3335C6.5 13.7313 6.34196 14.1129 6.06066 14.3942C5.77936 14.6755 5.39782 14.8335 5 14.8335C4.60218 14.8335 4.22064 14.6755 3.93934 14.3942C3.65804 14.1129 3.5 13.7313 3.5 13.3335C3.5 12.9357 3.65804 12.5541 3.93934 12.2728C4.22064 11.9915 4.60218 11.8335 5 11.8335ZM17 11.8335C17.3978 11.8335 17.7794 11.9915 18.0607 12.2728C18.342 12.5541 18.5 12.9357 18.5 13.3335C18.5 13.7313 18.342 14.1129 18.0607 14.3942C17.7794 14.6755 17.3978 14.8335 17 14.8335C16.6022 14.8335 16.2206 14.6755 15.9393 14.3942C15.658 14.1129 15.5 13.7313 15.5 13.3335C15.5 12.9357 15.658 12.5541 15.9393 12.2728C16.2206 11.9915 16.6022 11.8335 17 11.8335Z" fill="#F9FAFC"/>
</svg>
